<svg xmlns="http://www.w3.org/2000/svg" version="1.1" xmlns:xlink="http://www.w3.org/1999/xlink" xmlns:svgjs="http://svgjs.dev/svgjs" width="1500" height="1039" viewBox="0 0 1500 1039"><g transform="matrix(1,0,0,1,-0.1413816840004074,-1.6758064516129707)"><svg viewBox="0 0 358 248" data-background-color="#ffffff" preserveAspectRatio="xMidYMid meet" height="1039" width="1500" xmlns="http://www.w3.org/2000/svg" xmlns:xlink="http://www.w3.org/1999/xlink"><g id="tight-bounds" transform="matrix(1,0,0,1,0.0337430952480986,0.4000000000000057)"><svg viewBox="0 0 357.9325138095038 247.2" height="247.2" width="357.9325138095038"><g><svg viewBox="0 0 395.52 273.15915774009784" height="247.2" width="357.9325138095038"><g transform="matrix(1,0,0,1,0,199.8065919843188)"><svg viewBox="0 0 395.52 73.35256575577907" height="73.35256575577907" width="395.52"><g id="textblocktransform"><svg viewBox="0 0 395.52 73.35256575577907" height="73.35256575577907" width="395.52" id="textblock"><g><rect width="130.67134617743812" height="3.5678203480892994" y="59.34372908544422" fill="#d2d6dc" data-fill-palette-color="tertiary"></rect><rect width="130.67134617743812" height="3.5678203480892994" y="59.34372908544422" x="264.84865382256186" fill="#d2d6dc" data-fill-palette-color="tertiary"></rect></g><g><svg viewBox="0 0 395.52 39.562868920032976" height="39.562868920032976" width="395.52"><g transform="matrix(1,0,0,1,0,0)"><svg width="395.52" viewBox="5.75 -35.7 363.88 36.400000000000006" height="39.562868920032976" data-palette-color="#d2d6dc"><path d="M9.15 0L5.75 0 7-35.7 7.6-35.7 32.75-5.3 33.05-5.3 31.95-35 35.35-35 34.1 0.7 33.5 0.7 8.35-29.7 8.05-29.7 9.15 0ZM45.1-17.5L45.1-17.5Q45.1-21.35 46.47-24.68 47.85-28 50.32-30.48 52.8-32.95 56.12-34.33 59.45-35.7 63.3-35.7L63.3-35.7Q67.15-35.7 70.47-34.33 73.8-32.95 76.27-30.48 78.75-28 80.12-24.68 81.5-21.35 81.5-17.5L81.5-17.5Q81.5-13.65 80.12-10.33 78.75-7 76.27-4.53 73.8-2.05 70.47-0.68 67.15 0.7 63.3 0.7L63.3 0.7Q59.45 0.7 56.12-0.68 52.8-2.05 50.32-4.53 47.85-7 46.47-10.33 45.1-13.65 45.1-17.5ZM48.9-17.5L48.9-17.5Q48.9-12.4 50.7-8.58 52.5-4.75 55.75-2.63 59-0.5 63.3-0.5L63.3-0.5Q67.6-0.5 70.85-2.63 74.1-4.75 75.9-8.6 77.7-12.45 77.7-17.5L77.7-17.5Q77.7-22.55 75.9-26.38 74.1-30.2 70.85-32.35 67.6-34.5 63.3-34.5L63.3-34.5Q59-34.5 55.77-32.38 52.55-30.25 50.72-26.43 48.9-22.6 48.9-17.5ZM101.9 0L98.5 0 98.5-34Q97.75-34 95.4-33.7L95.4-33.7 85.59-32.45 85.59-35 114.8-35 114.8-32.45 105-33.7Q102.65-34 101.9-34L101.9-34 101.9 0ZM165.74-35L169.34-35 169.34 0 165.94 0 165.94-32.1 165.64-32.1 153.54-8.9 151.99-8.9 138.24-29.35 137.94-29.35 139.04 0 135.64 0 136.89-35.7 137.89-35.7 153.64-12.3 153.94-12.3 165.74-35ZM193.44 0L189.84 0 189.84-14.8 177.44-35 181.24-35 192.39-16.7 192.69-16.7 201.59-35 205.39-35 193.44-15.5 193.44 0ZM230.08 0L226.68 0 226.68-35 241.38-35 241.38-32.55 233.08-33.7Q230.83-34 230.08-34L230.08-34 230.08-18.35Q230.88-18.35 233.18-18.5L233.18-18.5 240.83-19 240.83-16.7 233.18-17.2Q230.88-17.35 230.08-17.35L230.08-17.35 230.08 0ZM248.13-17.5L248.13-17.5Q248.13-21.35 249.51-24.68 250.88-28 253.36-30.48 255.83-32.95 259.16-34.33 262.48-35.7 266.33-35.7L266.33-35.7Q270.18-35.7 273.51-34.33 276.83-32.95 279.31-30.48 281.78-28 283.16-24.68 284.53-21.35 284.53-17.5L284.53-17.5Q284.53-13.65 283.16-10.33 281.78-7 279.31-4.53 276.83-2.05 273.51-0.68 270.18 0.7 266.33 0.7L266.33 0.7Q262.48 0.7 259.16-0.68 255.83-2.05 253.36-4.53 250.88-7 249.51-10.33 248.13-13.65 248.13-17.5ZM251.93-17.5L251.93-17.5Q251.93-12.4 253.73-8.58 255.53-4.75 258.78-2.63 262.03-0.5 266.33-0.5L266.33-0.5Q270.63-0.5 273.88-2.63 277.13-4.75 278.93-8.6 280.73-12.45 280.73-17.5L280.73-17.5Q280.73-22.55 278.93-26.38 277.13-30.2 273.88-32.35 270.63-34.5 266.33-34.5L266.33-34.5Q262.03-34.5 258.81-32.38 255.58-30.25 253.76-26.43 251.93-22.6 251.93-17.5ZM292.53-17.5L292.53-17.5Q292.53-21.35 293.9-24.68 295.28-28 297.75-30.48 300.23-32.95 303.55-34.33 306.88-35.7 310.73-35.7L310.73-35.7Q314.58-35.7 317.9-34.33 321.23-32.95 323.7-30.48 326.18-28 327.55-24.68 328.93-21.35 328.93-17.5L328.93-17.5Q328.93-13.65 327.55-10.33 326.18-7 323.7-4.53 321.23-2.05 317.9-0.68 314.58 0.7 310.73 0.7L310.73 0.7Q306.88 0.7 303.55-0.68 300.23-2.05 297.75-4.53 295.28-7 293.9-10.33 292.53-13.65 292.53-17.5ZM296.33-17.5L296.33-17.5Q296.33-12.4 298.13-8.58 299.93-4.75 303.18-2.63 306.43-0.5 310.73-0.5L310.73-0.5Q315.03-0.5 318.28-2.63 321.53-4.75 323.33-8.6 325.13-12.45 325.13-17.5L325.13-17.5Q325.13-22.55 323.33-26.38 321.53-30.2 318.28-32.35 315.03-34.5 310.73-34.5L310.73-34.5Q306.43-34.5 303.2-32.38 299.98-30.25 298.15-26.43 296.33-22.6 296.33-17.5ZM350.43 0L339.43 0 339.43-35 350.43-35Q356.23-35 360.53-32.8 364.83-30.6 367.23-26.68 369.63-22.75 369.63-17.5L369.63-17.5Q369.63-12.25 367.23-8.33 364.83-4.4 360.53-2.2 356.23 0 350.43 0L350.43 0ZM350.43-33.8L350.43-33.8 342.83-33.8 342.83-1.2 350.43-1.2Q357.68-1.2 361.75-5.5 365.83-9.8 365.83-17.5L365.83-17.5Q365.83-25.2 361.75-29.5 357.68-33.8 350.43-33.8Z" opacity="1" transform="matrix(1,0,0,1,0,0)" fill="#d2d6dc" class="wordmark-text-0" data-fill-palette-color="primary" id="text-0"></path></svg></g></svg></g><g transform="matrix(1,0,0,1,130.67134617743812,48.90271276319868)"><svg viewBox="0 0 134.17730764512373 24.44985299258038" height="24.44985299258038" width="134.17730764512373"><g transform="matrix(1,0,0,1,8.000000000000007,0)"><svg width="118.17730764512372" viewBox="1.710588348457 -35.18 171.559411651543 35.5" height="24.44985299258038" data-palette-color="#d2d6dc"><path d="M10.62 0.32L10.62 0.32Q6.03 0.32 3.98-1.14 1.93-2.59 1.81-5.93L1.81-5.93Q1.68-7.79 1.72-9.3 1.76-10.82 1.88-12.7L1.88-12.7 5.18-12.7Q5.03-10.82 5.04-8.96 5.05-7.1 5.18-5.37L5.18-5.37Q5.3-3.96 6.52-3.28 7.74-2.61 10.55-2.61L10.55-2.61Q13.31-2.61 14.47-3.28 15.63-3.96 15.77-5.37L15.77-5.37Q15.89-7.1 15.88-8.39 15.87-9.67 15.77-11.57L15.77-11.57Q15.67-13.09 14.98-14.11 14.28-15.14 11.89-15.45L11.89-15.45 8.4-16.09Q5.64-16.55 4.26-17.44 2.88-18.33 2.38-19.74 1.88-21.14 1.78-23.17L1.78-23.17Q1.71-24.51 1.73-26.04 1.76-27.56 1.83-29L1.83-29Q1.88-32.32 3.87-33.75 5.86-35.18 10.55-35.18L10.55-35.18Q14.87-35.18 16.83-33.74 18.8-32.3 18.92-28.98L18.92-28.98Q18.99-27.83 18.97-26.14 18.95-24.44 18.87-22.63L18.87-22.63 15.55-22.63Q15.72-24.37 15.72-26.1 15.72-27.83 15.6-29.54L15.6-29.54Q15.5-30.93 14.32-31.59 13.13-32.25 10.47-32.25L10.47-32.25Q7.71-32.25 6.53-31.59 5.35-30.93 5.22-29.54L5.22-29.54Q5.1-27.98 5.11-26.37 5.13-24.76 5.22-23.17L5.22-23.17Q5.32-21.39 5.99-20.45 6.67-19.51 9.18-19.21L9.18-19.21 12.6-18.68Q15.36-18.26 16.75-17.33 18.14-16.41 18.64-14.98 19.14-13.55 19.21-11.57L19.21-11.57Q19.34-9.77 19.31-8.64 19.29-7.52 19.17-5.93L19.17-5.93Q18.99-2.59 17-1.14 15.01 0.32 10.62 0.32ZM26.95-31.69L26.95-28.17 23.8-28.17 23.8-31.69 26.95-31.69ZM26.95-23.75L26.95 0 23.78 0 23.78-23.75 26.95-23.75ZM35.25-19.19L35.25 0 32.1 0 32.1-23.75 35.25-23.75 35.25-21.53 36.01-21.53Q36.76-22.75 38-23.41 39.23-24.07 41.11-24.07L41.11-24.07Q43.87-24.07 45.21-22.86 46.55-21.66 46.55-18.82L46.55-18.82 46.55 0 43.43 0 43.43-19.09Q43.43-20.31 42.66-20.86 41.89-21.41 40.18-21.41L40.18-21.41Q38.47-21.41 37.18-20.83 35.88-20.24 35.25-19.19L35.25-19.19ZM65.45-15.41L65.45-15.41 62.37-15.41Q62.47-16.26 62.46-17.36 62.44-18.46 62.44-19.07L62.44-19.07Q62.42-20.36 61.43-20.85 60.44-21.34 58.2-21.34L58.2-21.34Q55.9-21.34 54.92-20.85 53.95-20.36 53.92-19.07L53.92-19.07Q53.75-15.23 53.75-11.93 53.75-8.62 53.92-4.81L53.92-4.81Q53.95-3.47 54.92-2.95 55.9-2.44 58.17-2.44L58.17-2.44Q60.42-2.44 61.42-2.95 62.42-3.47 62.44-4.81L62.44-4.81Q62.44-5.47 62.46-6.41 62.47-7.35 62.37-8.47L62.37-8.47 65.45-8.47Q65.57-7.76 65.56-6.82 65.54-5.88 65.5-5.13L65.5-5.13Q65.35-2.25 63.7-0.98 62.05 0.29 58.17 0.29L58.17 0.29Q54.26 0.29 52.57-0.98 50.87-2.25 50.75-5.13L50.75-5.13Q50.65-6.93 50.62-9.38 50.58-11.82 50.62-14.28 50.65-16.75 50.75-18.58L50.75-18.58Q50.87-21.53 52.59-22.8 54.31-24.07 58.2-24.07L58.2-24.07Q62.05-24.07 63.75-22.83 65.45-21.58 65.5-18.73L65.5-18.73Q65.54-17.99 65.56-17.05 65.57-16.11 65.45-15.41ZM76.8 0.29L76.8 0.29Q72.77 0.29 71.05-0.98 69.33-2.25 69.2-5.13L69.2-5.13Q69.11-6.93 69.07-9.38 69.03-11.82 69.07-14.28 69.11-16.75 69.2-18.58L69.2-18.58Q69.33-21.53 71.1-22.8 72.87-24.07 76.8-24.07L76.8-24.07Q80.51-24.07 82.17-22.83 83.83-21.58 84-18.73L84-18.73Q84.05-17.87 84.1-15.75 84.15-13.62 83.95-11.23L83.95-11.23 72.26-11.23Q72.26-9.69 72.28-8.11 72.3-6.52 72.38-4.81L72.38-4.81Q72.4-3.47 73.4-2.95 74.4-2.44 76.7-2.44L76.7-2.44Q78.97-2.44 79.9-2.95 80.82-3.47 80.92-4.81L80.92-4.81Q81-6.15 80.92-8.47L80.92-8.47 83.95-8.47Q84.07-7.76 84.06-6.82 84.05-5.88 84-5.13L84-5.13Q83.83-2.25 82.25-0.98 80.68 0.29 76.8 0.29ZM72.26-13.82L72.26-13.82 80.97-13.82Q81.02-15.48 81.02-16.99 81.02-18.51 80.92-19.07L80.92-19.07Q80.82-20.29 79.87-20.81 78.92-21.34 76.8-21.34L76.8-21.34Q74.43-21.34 73.42-20.81 72.4-20.29 72.38-19.07L72.38-19.07Q72.3-17.65 72.27-16.36 72.23-15.06 72.26-13.82ZM113.41-3.3L113.41 0 98.03 0Q98.01-1.37 97.97-2.15 97.93-2.93 97.92-3.88 97.91-4.83 97.96-6.64L97.96-6.64Q98.01-9.5 98.89-11.43 99.77-13.35 101.17-14.67 102.57-15.99 104.18-16.99L104.18-16.99 106.72-18.48Q108.73-19.56 109.27-20.76 109.82-21.97 109.95-23.24L109.95-23.24Q110.17-26.34 109.95-29.42L109.95-29.42Q109.85-30.79 108.84-31.45 107.82-32.1 105.48-32.1L105.48-32.1Q103.26-32.1 102.29-31.45 101.33-30.79 101.25-29.42L101.25-29.42Q101.21-27.71 101.22-26 101.23-24.29 101.35-22.56L101.35-22.56 97.96-22.56Q97.89-24.22 97.84-25.89 97.79-27.56 97.86-28.83L97.86-28.83Q98.03-32.25 99.81-33.72 101.6-35.18 105.55-35.18L105.55-35.18Q109.7-35.18 111.45-33.72 113.19-32.25 113.36-28.83L113.36-28.83Q113.46-27.64 113.46-26.01 113.46-24.39 113.36-23.27L113.36-23.27Q113.12-20.19 111.79-18.37 110.46-16.55 107.75-15.04L107.75-15.04 105.11-13.48Q103.26-12.5 102.34-10.61 101.43-8.72 101.43-6.64L101.43-6.64 101.43-3.3 113.41-3.3ZM125.93 0.32L125.93 0.32Q121.83 0.32 119.66-1.33 117.49-2.98 117.46-6.01L117.46-6.01Q117.37-11.55 117.37-17.44 117.37-23.34 117.46-28.86L117.46-28.86Q117.49-31.93 119.66-33.56 121.83-35.18 125.93-35.18L125.93-35.18Q129.96-35.18 132.15-33.56 134.33-31.93 134.38-28.86L134.38-28.86Q134.58-23.34 134.58-17.42 134.58-11.5 134.38-6.01L134.38-6.01Q134.33-2.98 132.15-1.33 129.96 0.32 125.93 0.32ZM125.93-2.78L125.93-2.78Q130.92-2.78 130.99-5.4L130.99-5.4Q131.23-11.84 131.21-18.08 131.18-24.32 130.99-29.47L130.99-29.47Q130.84-32.1 125.93-32.1L125.93-32.1Q123.57-32.1 122.24-31.43 120.91-30.76 120.86-29.47L120.86-29.47Q120.69-23.17 120.69-16.94 120.69-10.72 120.86-5.4L120.86-5.4Q120.91-4.13 122.24-3.45 123.57-2.78 125.93-2.78ZM154.62-3.3L154.62 0 139.24 0Q139.21-1.37 139.18-2.15 139.14-2.93 139.13-3.88 139.12-4.83 139.16-6.64L139.16-6.64Q139.21-9.5 140.09-11.43 140.97-13.35 142.38-14.67 143.78-15.99 145.39-16.99L145.39-16.99 147.93-18.48Q149.93-19.56 150.48-20.76 151.03-21.97 151.15-23.24L151.15-23.24Q151.37-26.34 151.15-29.42L151.15-29.42Q151.05-30.79 150.04-31.45 149.03-32.1 146.68-32.1L146.68-32.1Q144.46-32.1 143.5-31.45 142.53-30.79 142.46-29.42L142.46-29.42Q142.41-27.71 142.42-26 142.44-24.29 142.56-22.56L142.56-22.56 139.16-22.56Q139.09-24.22 139.04-25.89 138.99-27.56 139.07-28.83L139.07-28.83Q139.24-32.25 141.02-33.72 142.8-35.18 146.76-35.18L146.76-35.18Q150.91-35.18 152.65-33.72 154.4-32.25 154.57-28.83L154.57-28.83Q154.67-27.64 154.67-26.01 154.67-24.39 154.57-23.27L154.57-23.27Q154.33-20.19 153-18.37 151.66-16.55 148.95-15.04L148.95-15.04 146.32-13.48Q144.46-12.5 143.55-10.61 142.63-8.72 142.63-6.64L142.63-6.64 142.63-3.3 154.62-3.3ZM169.68-10.25L169.68 0 166.43 0 166.43-10.25 157.52-10.25 157.52-13.31 164.55-34.86 169.68-34.86 169.68-13.55 173.27-13.55 173.27-10.25 169.68-10.25ZM166.24-31.57L163.6-22.66 160.89-13.55 166.43-13.55 166.8-22.66 167.21-31.57 166.24-31.57Z" opacity="1" transform="matrix(1,0,0,1,0,0)" fill="#d2d6dc" class="slogan-text-1" data-fill-palette-color="secondary" id="text-1"></path></svg></g></svg></g></svg></g></svg></g><g transform="matrix(1,0,0,1,107.1965478510063,0)"><svg viewBox="0 0 181.12690429798738 181.12690429798738" height="181.12690429798738" width="181.12690429798738"><g><svg></svg></g><g id="icon-0"><svg viewBox="0 0 181.12690429798738 181.12690429798738" height="181.12690429798738" width="181.12690429798738"><g><path d="M0 90.563c0-50.017 40.547-90.563 90.563-90.563 50.017 0 90.563 40.547 90.564 90.563 0 50.017-40.547 90.563-90.564 90.564-50.017 0-90.563-40.547-90.563-90.564zM90.563 177.559c48.046 0 86.996-38.949 86.996-86.996 0-48.046-38.949-86.996-86.996-86.995-48.046 0-86.996 38.949-86.995 86.995 0 48.046 38.949 86.996 86.995 86.996z" data-fill-palette-color="tertiary" fill="#d2d6dc" stroke="transparent"></path></g><g transform="matrix(1,0,0,1,35.83778482219781,42.20481349991357)"><svg viewBox="0 0 109.45133465359176 96.71727729816024" height="96.71727729816024" width="109.45133465359176"><g><svg xmlns="http://www.w3.org/2000/svg" xmlns:xlink="http://www.w3.org/1999/xlink" version="1.1" x="0" y="0" viewBox="4.914962062139407 10.184288993214588 90.18832602380108 79.69541316885719" enable-background="new 0 0 100 100" xml:space="preserve" height="96.71727729816024" width="109.45133465359176" class="icon-dxe-0" data-fill-palette-color="accent" id="dxe-0"><path d="M81.7 15.7C72.2 9 60.1 9.4 49.3 11.7 41.2 13.4 33.3 16.4 26.3 20.7 25.9 20.3 25.3 20.1 24.5 20.1 14.5 21.1 8.8 29.5 6.3 38.6 3 50.7 5.7 64.3 13.3 74.2 20 82.9 30.1 88.2 40.9 89.6 53.6 91.3 66.2 85 76 77.5 85.6 70.2 94.9 60.6 95.1 47.8 95.2 41.7 93 35 91.1 29.2 89.2 24 86.2 18.9 81.7 15.7M76.7 70.5C61.1 84.4 39.5 90.8 22.1 76.3 13.9 69.5 10.1 59.6 10 49.2 9.9 43.6 11.3 36.2 14.9 31.1 15.1 33 17.5 34.5 19.1 32.8 32 19.6 55.7 10.9 73.6 17 84.2 20.5 86.8 31.7 89 41.3 91.9 53.8 85.7 62.4 76.7 70.5" fill="#d2d6dc" data-fill-palette-color="accent"></path><path d="M65.4 58.9C61.1 55.8 57 52.4 53.1 48.8 55.9 44.6 58.6 40.4 60.8 35.8 62.1 32.9 57.8 30.3 56.5 33.3 54.6 37.5 52.1 41.4 49.5 45.3 46.2 41.9 43 38.4 40 34.6 38 32.1 34.5 35.6 36.5 38.1 39.7 42.1 43 45.9 46.6 49.4 43.1 54.4 39.6 59.4 37 64.9 35.6 67.8 39.9 70.3 41.3 67.4 43.8 62.3 47 57.6 50.3 52.9 54.3 56.6 58.5 60 62.9 63.2 65.5 65.1 68 60.7 65.4 58.9" fill="#d2d6dc" data-fill-palette-color="accent"></path></svg></g></svg></g></svg></g></svg></g><g></g></svg></g><defs></defs></svg><rect width="357.9325138095038" height="247.2" fill="none" stroke="none" visibility="hidden"></rect></g></svg></g></svg>